<svg version="1.1" id="Layer_1" xmlns="http://www.w3.org/2000/svg" xmlns:xlink="http://www.w3.org/1999/xlink" x="0px" y="0px"
	 width="100%" viewBox="0 0 480 480" enable-background="new 0 0 480 480" xml:space="preserve">
<path fill-opacity="0" stroke="none" d="
M327.000000,481.000000
	C218.000000,481.000000 109.500000,481.000000 1.000000,481.000000
	C1.000000,321.000000 1.000000,161.000000 1.000000,1.000000
	C161.000000,1.000000 321.000000,1.000000 481.000000,1.000000
	C481.000000,161.000000 481.000000,321.000000 481.000000,481.000000
	C429.833344,481.000000 378.666656,481.000000 327.000000,481.000000
M237.421570,408.420166
	C237.667313,419.898895 237.711151,431.386810 238.231903,442.853058
	C238.562256,450.127075 239.382324,457.399933 240.402802,464.613892
	C241.061005,469.266907 244.707520,471.152283 248.901657,470.258881
	C257.013245,468.531036 265.462433,467.212250 272.920990,463.841492
	C288.049988,457.004089 302.938629,449.480835 317.335175,441.211090
	C341.559448,427.296112 364.124481,411.235565 379.793274,387.247467
	C383.691833,381.278961 388.549957,375.935181 392.419464,369.950226
	C400.630280,357.250580 403.905518,342.859802 406.389648,328.136292
	C409.988525,306.805695 409.916534,285.815491 403.397644,264.957642
	C397.245331,245.272629 387.154602,227.646133 374.820709,211.454346
	C359.712158,191.620087 343.418396,172.693069 327.875122,153.184113
	C314.906799,136.907074 302.157684,120.451012 293.623322,101.214569
	C289.384094,91.659348 286.218964,81.816307 286.869781,71.294510
	C287.598389,59.514858 289.214447,47.791775 290.045013,36.015903
	C290.366211,31.462091 290.344025,26.622101 289.139008,22.284567
	C287.372986,15.927752 280.797272,14.569135 276.214020,19.354967
	C273.607910,22.076279 270.898224,25.235811 269.734314,28.701464
	C266.045349,39.685696 258.275269,47.697449 251.023285,56.112331
	C243.627975,64.693527 238.698517,74.089569 238.722733,85.825317
	C238.744354,96.310181 237.732422,106.798218 237.785004,117.281799
	C237.941193,148.420715 238.518097,179.557495 238.677292,210.696396
	C238.741455,223.245117 243.963074,225.555466 254.215622,226.315399
	C270.311768,227.508453 286.457275,228.066925 302.588196,228.744553
	C309.117859,229.018875 310.955353,230.386612 311.000549,237.027527
	C311.045807,243.678574 310.604401,250.336121 310.267792,256.985321
	C310.088470,260.527802 308.036407,262.381775 304.523071,262.685760
	C297.735352,263.273071 290.954193,263.944641 284.161224,264.461700
	C272.374878,265.358887 260.569122,266.024139 248.795868,267.062653
	C241.784500,267.681122 238.578445,271.567688 238.344727,278.522949
	C238.087479,286.177826 237.391052,293.826752 237.374313,301.479340
	C237.297058,336.799194 237.389893,372.119354 237.421570,408.420166
M153.421783,230.884308
	C163.543671,230.000504 173.683197,229.278961 183.781937,228.182083
	C192.007858,227.288589 195.154037,224.518112 196.130737,216.270020
	C197.499725,204.709229 198.927063,193.062866 198.933975,181.452271
	C198.949051,156.155472 198.196793,130.855133 197.527542,105.562325
	C197.194870,92.989258 192.040329,89.566170 181.524948,96.060776
	C172.410782,101.689957 163.828049,108.590668 156.204147,116.135590
	C140.593033,131.584991 125.316910,147.431168 110.758873,163.871964
	C91.752304,185.336624 74.157677,207.996170 62.789135,234.642227
	C51.761543,260.489166 45.996391,287.666168 45.266243,315.733368
	C44.982761,326.630371 45.183426,337.835419 47.447468,348.411194
	C49.310745,357.114899 54.083958,365.345612 58.382759,373.347961
	C68.486595,392.156525 81.819908,408.603760 98.492798,421.868561
	C116.888832,436.504211 137.009293,448.740234 157.961853,459.360199
	C166.161987,463.516449 175.316467,466.003387 184.265778,468.390045
	C189.872482,469.885223 194.361771,466.602692 194.686584,461.907654
	C196.110931,441.319214 197.937592,420.738525 198.598373,400.122314
	C199.478867,372.650696 199.610336,345.149109 199.666153,317.659607
	C199.691818,305.024109 199.103638,292.361786 198.156662,279.759491
	C197.590347,272.223145 196.115173,271.423126 188.612915,271.340454
	C175.621796,271.197296 162.623520,271.314758 149.641708,270.900909
	C144.021988,270.721741 138.342941,269.899261 132.856613,268.644257
	C125.138588,266.878723 121.382362,261.727570 121.640533,253.804520
	C121.780548,249.507629 122.807693,245.243622 123.023109,240.944138
	C123.260384,236.208359 125.885124,233.988373 130.156296,233.440521
	C137.576675,232.488739 145.025131,231.755829 153.421783,230.884308
z"/>
	<path fill="#75010A" opacity="1.000000" stroke="none" d="M237.421661,407.929810 C237.389893,372.119354 237.297058,336.799194 237.374313,301.479340
		C237.391052,293.826752 238.087479,286.177826 238.344727,278.522949
		C238.578445,271.567688 241.784500,267.681122 248.795868,267.062653
		C260.569122,266.024139 272.374878,265.358887 284.161224,264.461700
		C290.954193,263.944641 297.735352,263.273071 304.523071,262.685760
		C308.036407,262.381775 310.088470,260.527802 310.267792,256.985321
		C310.604401,250.336121 311.045807,243.678574 311.000549,237.027527
		C310.955353,230.386612 309.117859,229.018875 302.588196,228.744553
		C286.457275,228.066925 270.311768,227.508453 254.215622,226.315399
		C243.963074,225.555466 238.741455,223.245117 238.677292,210.696396
		C238.518097,179.557495 237.941193,148.420715 237.785004,117.281799
		C237.732422,106.798218 238.744354,96.310181 238.722733,85.825317
		C238.698517,74.089569 243.627975,64.693527 251.023285,56.112331
		C258.275269,47.697449 266.045349,39.685696 269.734314,28.701464
		C270.898224,25.235811 273.607910,22.076279 276.214020,19.354967
		C280.797272,14.569135 287.372986,15.927752 289.139008,22.284567
		C290.344025,26.622101 290.366211,31.462091 290.045013,36.015903
		C289.214447,47.791775 287.598389,59.514858 286.869781,71.294510
		C286.218964,81.816307 289.384094,91.659348 293.623322,101.214569
		C302.157684,120.451012 314.906799,136.907074 327.875122,153.184113
		C343.418396,172.693069 359.712158,191.620087 374.820709,211.454346
		C387.154602,227.646133 397.245331,245.272629 403.397644,264.957642
		C409.916534,285.815491 409.988525,306.805695 406.389648,328.136292
		C403.905518,342.859802 400.630280,357.250580 392.419464,369.950226
		C388.549957,375.935181 383.691833,381.278961 379.793274,387.247467
		C364.124481,411.235565 341.559448,427.296112 317.335175,441.211090
		C302.938629,449.480835 288.049988,457.004089 272.920990,463.841492
		C265.462433,467.212250 257.013245,468.531036 248.901657,470.258881
		C244.707520,471.152283 241.061005,469.266907 240.402802,464.613892
		C239.382324,457.399933 238.562256,450.127075 238.231903,442.853058
		C237.711151,431.386810 237.667313,419.898895 237.421661,407.929810
	z"/>
	<path fill="#75010A" opacity="1.000000" stroke="none" d="M152.941803,230.907715 C145.025131,231.755829 137.576675,232.488739 130.156296,233.440521
		C125.885124,233.988373 123.260384,236.208359 123.023109,240.944138
		C122.807693,245.243622 121.780548,249.507629 121.640533,253.804520
		C121.382362,261.727570 125.138588,266.878723 132.856613,268.644257
		C138.342941,269.899261 144.021988,270.721741 149.641708,270.900909
		C162.623520,271.314758 175.621796,271.197296 188.612915,271.340454
		C196.115173,271.423126 197.590347,272.223145 198.156662,279.759491
		C199.103638,292.361786 199.691818,305.024109 199.666153,317.659607
		C199.610336,345.149109 199.478867,372.650696 198.598373,400.122314
		C197.937592,420.738525 196.110931,441.319214 194.686584,461.907654
		C194.361771,466.602692 189.872482,469.885223 184.265778,468.390045
		C175.316467,466.003387 166.161987,463.516449 157.961853,459.360199
		C137.009293,448.740234 116.888832,436.504211 98.492798,421.868561
		C81.819908,408.603760 68.486595,392.156525 58.382759,373.347961
		C54.083958,365.345612 49.310745,357.114899 47.447468,348.411194
		C45.183426,337.835419 44.982761,326.630371 45.266243,315.733368
		C45.996391,287.666168 51.761543,260.489166 62.789135,234.642227
		C74.157677,207.996170 91.752304,185.336624 110.758873,163.871964
		C125.316910,147.431168 140.593033,131.584991 156.204147,116.135590
		C163.828049,108.590668 172.410782,101.689957 181.524948,96.060776
		C192.040329,89.566170 197.194870,92.989258 197.527542,105.562325
		C198.196793,130.855133 198.949051,156.155472 198.933975,181.452271
		C198.927063,193.062866 197.499725,204.709229 196.130737,216.270020
		C195.154037,224.518112 192.007858,227.288589 183.781937,228.182083
		C173.683197,229.278961 163.543671,230.000504 152.941803,230.907715
	z"/>
</svg>